#!OML:ASF F:\VICON\USERDATA\INSTALL\rory3\rory3.ASF
:FULLY-SPECIFIED
:DEGREES
78
root 0.8062878225364429 17.770984789528985 45.26386240327133 -2.883991214339201 -1.6858778308624154 2.0731086190067507
lfemur -1.6994183519110182 -4.578684344159557 -25.99526366741462
ltibia 23.414365905589435
lfoot -1.981817726677468 -1.6089874715986583
ltoes -1.9716912837509648
rfemur -27.149251743787982 -0.10229946765033393 19.890828630853647
rtibia 54.527808920604045
rfoot -5.707592025687198 -9.385679674727378
rtoes 1.6317804600007593
lowerback 10.455281035386847 0.0012574053068430402 -1.488128983425902
upperback 0.9063513996465988 -0.14958658244147305 0.7150613714503058
thorax -5.042268905540194 -0.006959748105904273 2.015148731483673
lowerneck -16.377627115499195 -2.704733678935955 -3.505792806085231
upperneck 21.885590275812312 -3.3043566449791273 1.331133234377223
head 9.589489404172559 -1.6231584465954467 0.7462164599254412
lclavicle -2.7977028199012086e-15 -4.1635151558997327e-16
lhumerus -28.434675395226776 -1.1477787214393462 83.08525076922307
lradius 23.44857223551836
lwrist 4.2508728187452585
lhand -27.514531182016526 23.806264637080467
lfingers 7.1250199999999975
lthumb -0.908830377630401 53.756852574430624
rclavicle -2.795602932583648e-15 -4.1494383266284835e-16
rhumerus -29.642131278444175 -18.664376842055447 -79.42673646600832
rradius 22.9104632851385
rwrist 5.790804797477915
rhand -17.01651082692536 22.167977278325168
rfingers 7.1250199999999975
rthumb 8.939772131824265 -7.738373976602232
79
root 0.7603488915289278 17.73450430589374 45.96291612986971 -2.305356212727857 -0.8605227418160846 2.5766000133019067
lfemur 1.7822774744760448 -4.4754555059142636 -26.613991349356034
ltibia 20.767753042419066
lfoot -0.5231803906744261 -2.8239203166083557
ltoes -3.229752399198042
rfemur -28.4633188815044 1.3231282030980478 18.973614198162196
rtibia 45.42730768975021
rfoot -5.391966280044142 -10.36757399759329
rtoes 0.738462376528239
lowerback 10.362826464171599 -0.45486107836786516 -2.4310603921668203
upperback 0.8749488729738046 -0.867236261228927 0.8027570814114715
thorax -5.004879486038764 -0.35459597114921126 2.690900574977157
lowerneck -16.483810851459015 -2.730492470510194 -3.8082061207422813
upperneck 21.66481998166992 -3.309364236535101 1.5053215255783496
head 9.52090100790651 -1.6216776922773117 0.8241526390146928
lclavicle -2.798374723240493e-15 -4.1680331081057606e-16
lhumerus -26.419564604434935 -2.758090041908561 83.05821010721927
lradius 25.105775873238134
lwrist 5.707628454625035
lhand -28.040648094233358 24.08338856470301
lfingers 7.1250199999999975
lthumb -1.5388637148395121 53.8864119927676
rclavicle -2.7957267759711998e-15 -4.150263955172902e-16
rhumerus -30.038353094418813 -18.43774874987415 -79.35046246405452
rradius 23.031492849193203
rwrist 5.129758447735718
rhand -17.1158458027241 22.455008752023197
rfingers 7.1250199999999975
rthumb 8.912763820873721 -7.376197298669218
80
root 0.6989426013779763 17.742802436340092 46.60121434558604 -1.5146127347064808 -0.1362347279763938 3.112580115403452
lfemur 5.596506737290094 -4.349338735752928 -27.072552155556007
ltibia 16.426011639793757
lfoot 1.2100725671809043 -4.749033146306588
ltoes -3.8669822482574667
rfemur -28.388427389308315 3.952155292175998 17.16050295355175
rtibia 34.143454271000294
rfoot -5.398771106912337 -12.81727038496012
rtoes -0.6560383597858324
lowerback 9.762524786556282 -0.8498215848856278 -3.35677948797574
upperback 0.7844216417082321 -1.4883093349182692 0.8784394383098961
thorax -4.770819283030578 -0.6495570674590877 3.308710195228257
lowerneck -16.641732402811186 -2.7190775402866065 -3.9897813947821446
upperneck 21.58983987611324 -3.2880782038887904 1.5848128058896198
head 9.518756971438528 -1.615078794353603 0.8638653660100948
lclavicle -2.7977906672627476e-15 -4.164203068997997e-16
lhumerus -24.66564658540888 -3.7143039565682026 82.90114397042203
lradius 26.68966600239899
lwrist 6.310130530873291
lhand -28.33835115193221 24.327095581498046
lfingers 7.1250199999999975
lthumb -1.8724834929994976 54.31901723699314
rclavicle -2.795878840877421e-15 -4.151277813675797e-16
rhumerus -30.37026613912922 -19.206419909689938 -78.89681704424645
rradius 22.625692963074396
rwrist 5.6789560492906155
rhand -17.11495214425075 22.873893308290246
rfingers 7.1250199999999975
rthumb 8.979581741622457 -6.836708161194938
81
root 0.6151527613326632 17.727670049424926 47.314415298860304 -0.8135737109620649 0.7799444251830931 3.452939042478246
lfemur 9.078432160700746 -4.504483330999536 -27.12691570149017
ltibia 12.990793377528885
lfoot 2.116011928956267 -7.729896115443099
ltoes -3.9646496795127346
rfemur -27.785678918594222 6.97130640387903 14.93490716254875
rtibia 23.49804802060511
rfoot -7.721435193008776 -16.30365185893289
rtoes -2.980417780534134
lowerback 9.116172593685041 -1.302789455868012 -4.041857910682588
upperback 0.6087204770281387 -2.1288305835965478 0.9827156746184504
thorax -4.527867428296541 -0.9484699833144302 3.8596794525506315
lowerneck -16.79744448524621 -2.6726551835947854 -4.003410305326787
upperneck 21.60809572346595 -3.2197226959525103 1.481681830160355
head 9.566049102312242 -1.5879369352448922 0.8292281471086943
lclavicle -2.7975796467096876e-15 -4.1628224828086927e-16
lhumerus -23.472909834962824 -4.1229993510786205 82.64598438227594
lradius 28.114517336332185
lwrist 7.2128258338711575
lhand -28.288738203716857 24.00752199559983
lfingers 7.1250199999999975
lthumb -1.8646204826383284 54.06752419484384
rclavicle -2.796571606672589e-15 -4.1558990211671914e-16
rhumerus -30.70417726152908 -20.58723010901685 -78.12138654591875
rradius 21.859665310876053
rwrist 7.019662635666108
rhand -17.11736944971632 23.07332602600388
rfingers 7.1250199999999975
rthumb 9.047000398185846 -6.669551414982548
82
root 0.5080082569212112 17.675133455950107 47.94044263953628 -0.42982845710891904 1.6602462660360864 3.594824881141349
lfemur 11.324533372613924 -5.340185722792255 -26.799330341658074
ltibia 12.701094030666997
lfoot 2.8713295994295853 -10.37687024165286
ltoes -3.4019182685734055
rfemur -27.934594962427 6.90001291631678 14.964016998766681
rtibia 18.36854191451623
rfoot -9.403021231581778 -15.58721097177231
rtoes -5.135354613050355
lowerback 8.851078070014054 -1.6863807535116728 -4.477579288748554
upperback 0.4746904826820431 -2.631416422653067 1.1627161864368827
thorax -4.428457571414641 -1.209970449313988 4.283464002213205
lowerneck -16.90074061057079 -2.647338115752841 -4.021753767338362
upperneck 21.62656444103372 -3.179064507690723 1.3736910562686004
head 9.589743924770966 -1.5733089094142894 0.8009370872100997
lclavicle -2.798540105857132e-15 -4.1692341359122893e-16
lhumerus -22.830951908466076 -4.4456953584468115 82.53196637917283
lradius 29.48982365468784
lwrist 7.789945784431635
lhand -28.258608739763357 23.348496483979
lfingers 7.1250199999999975
lthumb -1.8130319169026627 53.38273592036634
rclavicle -2.7974710837073566e-15 -4.1618985179316376e-16
rhumerus -31.02073830096811 -21.94909771446248 -77.38790625340204
rradius 21.105533821592797
rwrist 8.52610233562013
rhand -17.213759121905163 23.188196857689345
rfingers 7.1250199999999975
rthumb 8.997695747208152 -6.780858938437463
83
root 0.40397806176656226 17.588101810040392 48.30377735760533 -0.7855453609462164 1.929086766307683 2.866369222309714
lfemur 12.05050819809605 -6.0967710086462095 -25.841441348617256
ltibia 16.710214901449007
lfoot 3.8871929483966214 -12.645215814871458
ltoes -2.806833949981449
rfemur -28.352938449396547 4.773717601243369 17.603617922380153
rtibia 20.471165153787148
rfoot -8.195494346909566 -11.477696511525107
rtoes -4.8913054681123835
lowerback 8.989314661525064 -1.9030600899731511 -3.999544192960548
upperback 0.5521361325825583 -2.8248066950422572 1.512356195251265
thorax -4.4297808805478684 -1.3127018179569099 4.40965974569883
lowerneck -16.976091725392116 -2.6339006933777345 -4.058672391858833
upperneck 21.64574607217221 -3.1514209820212504 1.264841046112148
head 9.619781755615199 -1.5663098495481207 0.7715775770505284
lclavicle -2.7989474331189217e-15 -4.171919548888199e-16
lhumerus -22.803861702893844 -4.448058129768335 82.57001162521627
lradius 30.481885021510244
lwrist 7.7470167542215975
lhand -28.655194513770518 22.678519790859564
lfingers 7.1250199999999975
lthumb -2.1159353826464113 52.747056420123855
rclavicle -2.7955669583144188e-15 -4.1491975699033397e-16
rhumerus -31.225220179883944 -23.27397238327974 -76.61415641374923
rradius 20.268139372711687
rwrist 10.315499439352601
rhand -17.443614279471205 23.080421340379427
rfingers 7.1250199999999975
rthumb 8.848341842122997 -7.050813223688844
84
root 0.3002909590400716 17.56294152229706 48.84749876517914 -1.2709007901797802 1.745500305346496 1.799124606661056
lfemur 11.101617378751058 -6.090013969773692 -24.336599788538628
ltibia 24.008737098451636
lfoot 6.433295584117139 -14.2328245650145
ltoes -1.2481379405008761
rfemur -27.855827032705474 4.560642990966847 20.001217382439794
rtibia 23.860319100767985
rfoot -6.180345694151759 -8.118589083866798
rtoes -1.490982577928937
lowerback 9.005679051449823 -2.004220693824358 -3.183322980934431
upperback 0.604121648143629 -2.882834994638725 1.9704898436986604
thorax -4.391527371440947 -1.3543027802438514 4.448245678761615
lowerneck -16.961776221577846 -2.592257503004252 -4.036934171889753
upperneck 21.754303232837632 -3.068179241697934 1.0419348733861586
head 9.659307460400047 -1.5431633162615854 0.7222551312197077
lclavicle -2.7985996953046244e-15 -4.1695749204678204e-16
lhumerus -23.441534972517214 -3.8449454765598166 82.75080479361762
lradius 30.95665356922488
lwrist 7.646363303678854
lhand -29.22881831496951 22.518670072531627
lfingers 7.1250199999999975
lthumb -2.619254370159528 52.365270133124056
rclavicle -2.7963635175753706e-15 -4.1545101114590225e-16
rhumerus -31.481859890888167 -24.7712221883497 -75.67798683369419
rradius 19.362716894015936
rwrist 12.50369613123386
rhand -17.602077607729846 23.00822328819113
rfingers 7.1250199999999975
rthumb 8.742497588780706 -7.09832125391953
